<svg width="27" height="30" viewBox="0 0 27 30" fill="none" xmlns="http://www.w3.org/2000/svg">
<path d="M0 6.5014C0 11.9093 0.0236014 13.159 0.118007 13.888C0.38549 15.7997 1.03059 17.4288 2.18706 19.0801C2.90297 20.0992 4.4764 21.5944 5.54633 22.2564C7.51311 23.4912 9.66871 24.1905 11.8243 24.302L12.674 24.3467L12.6425 17.3246C12.6189 10.3992 12.6189 10.2951 12.4458 9.581C11.1871 4.35164 6.82867 0.654638 1.24301 0.0818653C0.818182 0.0372334 0.369755 4.00543e-05 0.236014 4.00543e-05H0V6.5014Z" fill="#42C0FB"/>
<path d="M19.3137 1.13068C18.3303 1.23482 17.3863 1.70345 16.6782 2.43244C14.9632 4.21027 15.2779 7.05183 17.3548 8.45029C18.0707 8.9338 18.7473 9.15696 19.6284 9.20159C20.9029 9.27598 22.0043 8.87429 22.8933 8.03373C23.7665 7.2006 24.152 6.30796 24.152 5.13266C24.152 2.68535 21.9335 0.848008 19.3137 1.13068Z" fill="black"/>
<path d="M25.8035 10.7637C20.8236 11.2695 16.9608 14.5723 15.765 19.3404C15.6392 19.8388 15.6234 20.4414 15.5998 24.9492L15.5684 30L16.418 29.9554C19.0614 29.814 21.6418 28.6982 23.6007 26.846C25.2528 25.2765 26.2677 23.4614 26.7554 21.215C26.9206 20.4562 26.9285 20.2033 26.9678 15.5616L26.9993 10.7116L26.5351 10.7265C26.2834 10.7265 25.953 10.7488 25.8035 10.7637Z" fill="#42C0FB"/>
</svg>
